<svg
  xmlns="http://www.w3.org/2000/svg"
  viewBox="0 0 1920 1080"
  preserveAspectRatio="none"
>
  <defs>
    <linearGradient id="edgeGlowLeft" x1="0" y1="0" x2="1" y2="0">
      <stop offset="0" stop-color="#ff1f1f" stop-opacity="0.9" />
      <stop offset="1" stop-color="#ff1f1f" stop-opacity="0.05" />
    </linearGradient>
    <linearGradient id="edgeGlowRight" x1="1" y1="0" x2="0" y2="0">
      <stop offset="0" stop-color="#ff1f1f" stop-opacity="0.9" />
      <stop offset="1" stop-color="#ff1f1f" stop-opacity="0.05" />
    </linearGradient>
    <filter id="hudGlow" x="-20%" y="-20%" width="140%" height="140%">
      <feGaussianBlur stdDeviation="1.8" result="blur" />
      <feMerge>
        <feMergeNode in="blur" />
        <feMergeNode in="SourceGraphic" />
      </feMerge>
    </filter>
    <g id="rectX">
      <rect x="-13" y="-2" width="26" height="4" rx="1.5" transform="rotate(45)" />
      <rect x="-13" y="-2" width="26" height="4" rx="1.5" transform="rotate(-45)" />
    </g>
  </defs>

  <g stroke="#ff2a2a" stroke-width="2.5" fill="none" filter="url(#hudGlow)">
    <path d="M72 84H272M72 84V238" />
    <path d="M1848 84H1648M1848 84V238" />
    <path d="M72 996H272M72 996V842" />
    <path d="M1848 996H1648M1848 996V842" />
  </g>

  <rect x="38" y="130" width="112" height="820" rx="8" fill="url(#edgeGlowLeft)" />
  <rect x="1770" y="130" width="112" height="820" rx="8" fill="url(#edgeGlowRight)" />

  <g fill="#ff4d4d" opacity="0.78" filter="url(#hudGlow)">
    <use href="#rectX" x="95" y="180" />
    <use href="#rectX" x="95" y="250" />
    <use href="#rectX" x="95" y="320" />
    <use href="#rectX" x="95" y="390" />
    <use href="#rectX" x="95" y="460" />
    <use href="#rectX" x="95" y="530" />
    <use href="#rectX" x="95" y="600" />
    <use href="#rectX" x="95" y="670" />
    <use href="#rectX" x="95" y="740" />
    <use href="#rectX" x="95" y="810" />

    <use href="#rectX" x="1825" y="180" />
    <use href="#rectX" x="1825" y="250" />
    <use href="#rectX" x="1825" y="320" />
    <use href="#rectX" x="1825" y="390" />
    <use href="#rectX" x="1825" y="460" />
    <use href="#rectX" x="1825" y="530" />
    <use href="#rectX" x="1825" y="600" />
    <use href="#rectX" x="1825" y="670" />
    <use href="#rectX" x="1825" y="740" />
    <use href="#rectX" x="1825" y="810" />
  </g>

  <g stroke="#ff3b3b" stroke-width="1.5" opacity="0.35">
    <path d="M152 168H300" />
    <path d="M1768 168H1620" />
    <path d="M152 912H300" />
    <path d="M1768 912H1620" />
  </g>
</svg>
